<?xml version="1.0" encoding="UTF-8"?>
<svg width="16" height="16" viewBox="0 0 16 16" fill="none" xmlns="http://www.w3.org/2000/svg">
  <path d="M13.5 2.5V6.5H9.5" stroke="#ffffff" stroke-width="1.5" stroke-linecap="round" stroke-linejoin="round"/>
  <path d="M2.5 13.5V9.5H6.5" stroke="#ffffff" stroke-width="1.5" stroke-linecap="round" stroke-linejoin="round"/>
  <path d="M4 6.5C4 5.83696 4.15519 5.18107 4.45672 4.59201C4.75825 4.00295 5.19727 3.50025 5.73223 3.13064C6.2672 2.76103 6.88364 2.53794 7.5269 2.4822C8.17017 2.42645 8.81361 2.53975 9.4 2.81L13.5 4.5" stroke="#ffffff" stroke-width="1.5" stroke-linecap="round" stroke-linejoin="round"/>
  <path d="M12 9.5C12 10.163 11.8448 10.8189 11.5433 11.408C11.2417 11.997 10.8027 12.4998 10.2678 12.8694C9.7328 13.239 9.11636 13.4621 8.4731 13.5178C7.82983 13.5735 7.18639 13.4602 6.6 13.19L2.5 11.5" stroke="#ffffff" stroke-width="1.5" stroke-linecap="round" stroke-linejoin="round"/>
</svg> 